<svg width="36" height="45" viewBox="0 0 36 45" fill="none" xmlns="http://www.w3.org/2000/svg">
<path d="M13.276 0H17.3345C18.611 0 19.7678 0.513312 20.6067 1.3425C21.4457 2.1717 21.965 3.31498 21.965 4.57671V11.2693C21.965 12.531 21.4457 13.6725 20.6067 14.5035C19.7678 15.3327 18.611 15.846 17.3345 15.846H14.5453C13.857 15.846 13.2342 16.1224 12.782 16.5692C12.3299 17.0161 12.0503 17.6335 12.0503 18.312V26.688C12.0503 27.3682 12.3299 27.9838 12.782 28.4307C13.2342 28.8777 13.8589 29.154 14.5453 29.154H17.3345C18.611 29.154 19.7678 29.6673 20.6067 30.4965C21.4457 31.3257 21.965 32.469 21.965 33.7307V40.4233C21.965 41.685 21.4457 42.8283 20.6067 43.6575C19.7678 44.4867 18.611 45 17.3345 45H13.276C9.62421 45 6.30484 43.5229 3.89869 41.1466C1.49264 38.7685 0 35.4879 0 31.8783V13.1249C0 9.51557 1.49445 6.23478 3.89869 3.8566C6.30474 1.47851 9.62398 0.00321623 13.276 0.00321623V0ZM25.5368 29.4667C25.121 29.8795 24.4454 29.8795 24.0296 29.4667C23.612 29.0539 23.612 28.3881 24.0296 27.9753C25.5604 26.4623 26.3231 24.4808 26.3231 22.4994C26.3231 20.518 25.5586 18.5347 24.0296 17.0235C23.612 16.6107 23.612 15.9448 24.0296 15.5321C24.4455 15.1193 25.121 15.1193 25.5368 15.5321C27.4834 17.4561 28.4567 19.9795 28.4567 22.4994C28.4567 25.021 27.4834 27.543 25.5368 29.4667ZM30.8702 34.7382C30.4526 35.1492 29.7788 35.1492 29.3612 34.7382C28.9436 34.3254 28.9436 33.6595 29.3612 33.2467C32.3647 30.2782 33.8646 26.3888 33.8646 22.5012C33.8646 18.612 32.3647 14.7207 29.3612 11.7558C28.9436 11.3448 28.9436 10.6771 29.3612 10.2661C29.7789 9.8533 30.4526 9.8533 30.8702 10.2661C34.2895 13.6457 36 18.0751 36 22.503C36 26.9325 34.2894 31.3601 30.8702 34.7399V34.7382ZM17.3347 2.11077H13.2762C10.2128 2.11077 7.42725 3.34916 5.40788 5.34677C3.38859 7.34259 2.13383 10.0976 2.13383 13.1236V31.8771C2.13383 34.9049 3.38678 37.6562 5.40788 39.654C7.42716 41.6498 10.2146 42.89 13.2762 42.89H17.3347C18.0229 42.89 18.6458 42.6136 19.0979 42.1649C19.5501 41.718 19.8297 41.1006 19.8297 40.4221V33.7296C19.8297 33.0512 19.5501 32.4356 19.0979 31.9869C18.6458 31.54 18.0211 31.2618 17.3347 31.2618H14.5455C13.2689 31.2618 12.1122 30.7485 11.2733 29.9193C10.4343 29.0901 9.91498 27.9468 9.91498 26.6851V18.3091C9.91498 17.0473 10.4343 15.904 11.2733 15.0748C12.1122 14.2457 13.2689 13.7323 14.5455 13.7323H17.3347C18.0229 13.7323 18.6458 13.4559 19.0979 13.0073C19.5501 12.5604 19.8297 11.943 19.8297 11.2645V4.57198C19.8297 3.89174 19.5501 3.27616 19.0979 2.82924C18.6458 2.38233 18.0211 2.10416 17.3347 2.10416V2.11077Z" fill="black"/>
</svg>
