<svg width="45" height="45" viewBox="0 0 45 45" fill="none" xmlns="http://www.w3.org/2000/svg">
<path d="M40.1786 14.4643H30.5357V4.82143C30.5357 3.54271 30.0277 2.31636 29.1236 1.41216C28.2194 0.507971 26.993 0 25.7143 0H19.2857C18.007 0 16.7806 0.507971 15.8764 1.41216C14.9723 2.31636 14.4643 3.54271 14.4643 4.82143V14.4643H4.82143C3.54271 14.4643 2.31636 14.9723 1.41216 15.8764C0.507971 16.7806 0 18.007 0 19.2857V25.7143C0 26.993 0.507971 28.2194 1.41216 29.1236C2.31636 30.0277 3.54271 30.5357 4.82143 30.5357H14.4643V40.1786C14.4643 41.4573 14.9723 42.6836 15.8764 43.5878C16.7806 44.492 18.007 45 19.2857 45H25.7143C26.993 45 28.2194 44.492 29.1236 43.5878C30.0277 42.6836 30.5357 41.4573 30.5357 40.1786V30.5357H40.1786C41.4573 30.5357 42.6836 30.0277 43.5878 29.1236C44.492 28.2194 45 26.993 45 25.7143V19.2857C45 18.007 44.492 16.7806 43.5878 15.8764C42.6836 14.9723 41.4573 14.4643 40.1786 14.4643ZM41.7857 25.7143C41.7857 26.1405 41.6164 26.5493 41.315 26.8507C41.0136 27.1521 40.6048 27.3214 40.1786 27.3214H28.9286C28.5023 27.3214 28.0935 27.4907 27.7921 27.7921C27.4907 28.0935 27.3214 28.5023 27.3214 28.9286V40.1786C27.3214 40.6048 27.1521 41.0136 26.8507 41.315C26.5493 41.6164 26.1405 41.7857 25.7143 41.7857H19.2857C18.8595 41.7857 18.4507 41.6164 18.1493 41.315C17.8479 41.0136 17.6786 40.6048 17.6786 40.1786V28.9286C17.6786 28.5023 17.5092 28.0935 17.2078 27.7921C16.9065 27.4907 16.4977 27.3214 16.0714 27.3214H4.82143C4.39519 27.3214 3.9864 27.1521 3.68501 26.8507C3.38361 26.5493 3.21429 26.1405 3.21429 25.7143V19.2857C3.21429 18.8595 3.38361 18.4507 3.68501 18.1493C3.9864 17.8479 4.39519 17.6786 4.82143 17.6786H16.0714C16.4977 17.6786 16.9065 17.5092 17.2078 17.2078C17.5092 16.9065 17.6786 16.4977 17.6786 16.0714V4.82143C17.6786 4.39519 17.8479 3.9864 18.1493 3.68501C18.4507 3.38361 18.8595 3.21429 19.2857 3.21429H25.7143C26.1405 3.21429 26.5493 3.38361 26.8507 3.68501C27.1521 3.9864 27.3214 4.39519 27.3214 4.82143V16.0714C27.3214 16.4977 27.4907 16.9065 27.7921 17.2078C28.0935 17.5092 28.5023 17.6786 28.9286 17.6786H40.1786C40.6048 17.6786 41.0136 17.8479 41.315 18.1493C41.6164 18.4507 41.7857 18.8595 41.7857 19.2857V25.7143Z" fill="black"/>
</svg>
