<svg width="39" height="46" viewBox="0 0 39 46" fill="none" xmlns="http://www.w3.org/2000/svg">
<path d="M21.3252 0.710938C24.8612 -0.218073 28.6296 0.269122 31.8008 2.0625L31.8379 2.08301L31.8418 2.08496C35.0137 3.88011 37.3299 6.83789 38.2793 10.3086C39.2288 13.7795 38.7302 17.4789 36.8975 20.5898L26.0635 38.9805C24.2308 42.091 21.2125 44.3616 17.6748 45.2891C14.1375 46.2184 10.3672 45.7305 7.19531 43.9355V43.9346L7.16211 43.917L7.1582 43.915C3.98633 42.1199 1.6701 39.1621 0.720703 35.6914C-0.228761 32.2205 0.269782 28.5211 2.10254 25.4102L12.9365 7.01953C14.7692 3.90898 17.7875 1.63836 21.3252 0.710938ZM3.97461 26.4814C2.43058 29.1035 2.01229 32.2173 2.81152 35.1396C3.61058 38.0607 5.56008 40.5526 8.2334 42.0674L8.27051 42.0879L8.27441 42.0898C10.9497 43.6044 14.1324 44.0158 17.1182 43.2314C20.1037 42.447 22.6481 40.5334 24.1924 37.9111L29.0635 29.6396L8.84961 18.2031L3.97461 26.4814ZM30.7285 3.91211C28.0532 2.39753 24.8696 1.9861 21.8838 2.77051C19.085 3.50596 16.6742 5.23375 15.1113 7.60742L14.8105 8.09082L9.93848 16.3613L30.1514 27.7979L35.0273 19.5205C36.5714 16.8985 36.9906 13.7847 36.1914 10.8623C35.3921 7.93977 33.4407 5.44721 30.7656 3.93262V3.93164L30.7314 3.91406L30.7285 3.91211ZM24.1836 4.35059C25.8404 4.27579 27.6476 4.72064 29.6152 5.86426V5.86523C30.1281 6.16437 30.3031 6.8178 29.9941 7.32715C29.6877 7.83213 29.0263 7.99747 28.5146 7.69922V7.69824C26.603 6.58703 24.9356 6.30501 23.4658 6.58301C21.9772 6.8643 20.6676 7.70892 19.4941 8.83496C17.8223 10.4374 16.4604 12.5735 15.3242 14.5176V14.5186C15.0258 15.0264 14.3677 15.2011 13.8516 14.9141L13.8506 14.9131C13.3315 14.6215 13.1499 13.9704 13.4473 13.457L14.0586 12.4336C15.5384 10.0233 17.3951 7.49626 19.7119 5.92188C21.0405 5.01906 22.5272 4.42545 24.1836 4.35059Z" fill="black" stroke="black" stroke-width="0.5"/>
</svg>
