<svg width="36" height="45" viewBox="0 0 36 45" fill="none" xmlns="http://www.w3.org/2000/svg">
<path d="M5.625 0C2.52822 0 0 2.52822 0 5.625V39.375C0 42.4718 2.52822 45 5.625 45C13.875 45 22.125 45 30.375 45C33.4718 45 36 42.4718 36 39.375V5.625C36 2.52822 33.4718 0 30.375 0C22.125 0 13.875 0 5.625 0ZM5.625 2.25H6.75V42.75H5.625C3.7358 42.75 2.25 41.2642 2.25 39.375V5.625C2.25 3.7358 3.7358 2.25 5.625 2.25ZM9 2.25H30.375C32.2642 2.25 33.75 3.7358 33.75 5.625V39.375C33.75 41.2642 32.2642 42.75 30.375 42.75H9V2.25Z" fill="black"/>
<path d="M14.625 15.75C14.3266 15.75 14.0405 15.8685 13.8295 16.0795C13.6185 16.2905 13.5 16.5766 13.5 16.875C13.5 17.1734 13.6185 17.4595 13.8295 17.6705C14.0405 17.8815 14.3266 18 14.625 18H28.125C28.4234 18 28.7095 17.8815 28.9205 17.6705C29.1315 17.4595 29.25 17.1734 29.25 16.875C29.25 16.5766 29.1315 16.2905 28.9205 16.0795C28.7095 15.8685 28.4234 15.75 28.125 15.75H14.625Z" fill="black"/>
<path d="M14.625 11.25C14.3266 11.25 14.0405 11.3685 13.8295 11.5795C13.6185 11.7905 13.5 12.0766 13.5 12.375C13.5 12.6734 13.6185 12.9595 13.8295 13.1705C14.0405 13.3815 14.3266 13.5 14.625 13.5H28.125C28.4234 13.5 28.7095 13.3815 28.9205 13.1705C29.1315 12.9595 29.25 12.6734 29.25 12.375C29.25 12.0766 29.1315 11.7905 28.9205 11.5795C28.7095 11.3685 28.4234 11.25 28.125 11.25H14.625Z" fill="black"/>
<path d="M14.625 6.75C14.3266 6.75 14.0405 6.86853 13.8295 7.07951C13.6185 7.29048 13.5 7.57663 13.5 7.875C13.5 8.17337 13.6185 8.45952 13.8295 8.67049C14.0405 8.88147 14.3266 9 14.625 9H28.125C28.4234 9 28.7095 8.88147 28.9205 8.67049C29.1315 8.45952 29.25 8.17337 29.25 7.875C29.25 7.57663 29.1315 7.29048 28.9205 7.07951C28.7095 6.86853 28.4234 6.75 28.125 6.75H14.625Z" fill="black"/>
</svg>
