<svg width="49" height="45" viewBox="0 0 49 45" fill="none" xmlns="http://www.w3.org/2000/svg">
<path d="M21.9563 24.7709C23.2814 24.7709 24.4796 24.2293 25.3493 23.3548C26.2171 22.4803 26.7545 21.271 26.7545 19.9376C26.7545 18.6023 26.219 17.395 25.3493 16.5186C24.4815 15.6441 23.2814 15.1025 21.9563 15.1025C20.6332 15.1025 19.4331 15.6421 18.5654 16.5186C17.6976 17.393 17.1601 18.6023 17.1601 19.9376C17.1601 21.271 17.6956 22.4803 18.5654 23.3548C19.4332 24.2293 20.6332 24.7709 21.9563 24.7709ZM24.7591 26.5041L26.1546 32.1547C26.2875 32.1448 26.4223 32.1428 26.5591 32.1428C28.322 32.1428 29.9149 32.8637 31.07 34.0257C32.2251 35.1897 32.9385 36.7949 32.9385 38.5714C32.9385 40.3479 32.2232 41.9531 31.07 43.1171C29.9149 44.2811 28.322 45 26.5591 45C24.7982 45 23.2033 44.2791 22.0482 43.1171C20.8932 41.9531 20.1798 40.3479 20.1798 38.5714C20.1798 36.7969 20.8951 35.1897 22.0482 34.0257C22.5877 33.4822 23.2249 33.0331 23.9304 32.712L22.5349 27.0614C22.3433 27.0772 22.1499 27.0851 21.9564 27.0851C20.5335 27.0851 19.2084 26.6616 18.0963 25.9349L12.7627 31.8477C13.5835 32.9289 14.0722 34.282 14.0722 35.7493C14.0722 37.5258 13.3568 39.131 12.2037 40.295C11.0486 41.459 9.45572 42.1779 7.69282 42.1779C5.93186 42.1779 4.33702 41.4571 3.18193 40.295C2.02684 39.131 1.31345 37.5258 1.31345 35.7493C1.31345 33.9748 2.02879 32.3677 3.18193 31.2037C4.33702 30.0397 5.92991 29.3208 7.69282 29.3208C8.93196 29.3208 10.0871 29.6753 11.0662 30.2918L16.3999 24.379C15.4383 23.1579 14.8637 21.6137 14.8637 19.9357C14.8637 18.7953 15.1275 17.718 15.5986 16.7628L10.8082 13.3003C9.65896 14.417 8.09929 15.1024 6.37937 15.1024C4.61841 15.1024 3.02357 14.3816 1.86848 13.2195C0.713389 12.0555 0 10.4503 0 8.67384C0 6.89931 0.71534 5.29216 1.86848 4.12816C3.02357 2.96416 4.61841 2.24527 6.37937 2.24527C8.14032 2.24527 9.73516 2.96613 10.8903 4.12816C12.0453 5.29216 12.7587 6.89734 12.7587 8.67384C12.7587 9.65664 12.5398 10.5882 12.147 11.4213L16.9373 14.8858L16.9413 14.8818C18.2253 13.5878 19.998 12.7882 21.9562 12.7882C23.5237 12.7882 24.9719 13.3003 26.1466 14.1669L30.3135 10.0388C29.6177 9.00868 29.2112 7.76592 29.2112 6.42858C29.2112 4.65207 29.9265 3.04689 31.0796 1.88289C32.2347 0.718891 33.8276 0 35.5905 0C37.3515 0 38.9463 0.720858 40.1014 1.88289C41.2565 3.04689 41.9699 4.65207 41.9699 6.42858C41.9699 8.20311 41.2546 9.81026 40.1014 10.9743C38.9463 12.1383 37.3534 12.8552 35.5905 12.8552C34.2224 12.8552 32.9559 12.4219 31.9181 11.6853L27.7512 15.8154C28.5701 16.9794 29.049 18.4034 29.049 19.9396V20.0007L36.6322 21.3222C36.9527 20.4379 37.4629 19.6462 38.1097 18.9923C39.2648 17.8283 40.8597 17.1094 42.6206 17.1094C44.3816 17.1094 45.9764 17.8302 47.1315 18.9923C48.2866 20.1563 49 21.7615 49 23.538C49 25.3145 48.2847 26.9196 47.1315 28.0836C45.9764 29.2476 44.3816 29.9665 42.6206 29.9665C40.8597 29.9665 39.2648 29.2457 38.1097 28.0836C36.9684 26.9335 36.2589 25.3499 36.2432 23.599L28.662 22.2794C28.3063 23.3134 27.7239 24.2371 26.9734 24.9934C26.3421 25.6296 25.5916 26.1456 24.7609 26.508L24.7591 26.5041ZM26.5572 42.6839C27.6849 42.6839 28.7052 42.225 29.4439 41.4805C30.1827 40.736 30.6381 39.708 30.6381 38.5715C30.6381 37.4351 30.1827 36.407 29.4439 35.6625C28.7051 34.918 27.6849 34.4592 26.5572 34.4592C25.4295 34.4592 24.4092 34.9181 23.6705 35.6625C22.9317 36.4071 22.4763 37.4351 22.4763 38.5715C22.4763 39.708 22.9317 40.7361 23.6705 41.4805C24.4093 42.225 25.4295 42.6839 26.5572 42.6839ZM7.69277 39.8615C8.82049 39.8615 9.84074 39.4026 10.5795 38.6582C11.3183 37.9137 11.7737 36.8856 11.7737 35.7492C11.7737 34.6128 11.3163 33.5846 10.5795 32.8402C9.84069 32.0957 8.82049 31.6368 7.69277 31.6368C6.56505 31.6368 5.5448 32.0957 4.80605 32.8402C4.06724 33.5847 3.61188 34.6128 3.61188 35.7492C3.61188 36.8856 4.06727 37.9137 4.80605 38.6582C5.54482 39.4026 6.56505 39.8615 7.69277 39.8615ZM6.37742 12.7864C7.50514 12.7864 8.52539 12.3275 9.26415 11.583C10.003 10.8385 10.4583 9.81045 10.4583 8.67403C10.4583 7.53761 10.001 6.50949 9.26415 5.76503C8.52534 5.02053 7.50514 4.56166 6.37742 4.56166C5.2497 4.56166 4.22945 5.02056 3.49069 5.76503C2.75189 6.50954 2.29653 7.53761 2.29653 8.67403C2.29653 9.81045 2.75192 10.8386 3.49069 11.583C4.2295 12.3275 5.2497 12.7864 6.37742 12.7864ZM35.5889 10.5411C36.7166 10.5411 37.7369 10.0822 38.4756 9.33776C39.2145 8.59325 39.6698 7.56519 39.6698 6.42876C39.6698 5.29234 39.2125 4.26423 38.4756 3.51977C37.7368 2.77527 36.7166 2.31639 35.5889 2.31639C34.4612 2.31639 33.4409 2.7753 32.7022 3.51977C31.9634 4.26428 31.508 5.29234 31.508 6.42876C31.508 7.56519 31.9634 8.5933 32.7022 9.33776C33.441 10.0823 34.4612 10.5411 35.5889 10.5411ZM42.6192 27.6507C43.747 27.6507 44.7672 27.1918 45.506 26.4473C46.2447 25.7029 46.7001 24.6748 46.7001 23.5384C46.7001 22.4019 46.2447 21.3738 45.506 20.6294C44.7672 19.8849 43.747 19.426 42.6192 19.426C41.4915 19.426 40.4713 19.8849 39.7325 20.6294C38.9937 21.3739 38.5383 22.4019 38.5383 23.5384C38.5383 24.6748 38.9937 25.7029 39.7325 26.4473C40.4713 27.1919 41.4915 27.6507 42.6192 27.6507Z" fill="black"/>
</svg>
