<svg width="44" height="45" viewBox="0 0 44 45" fill="none" xmlns="http://www.w3.org/2000/svg">
<path d="M29.6277 22.0946C28.3467 21.0177 26.42 21.1657 25.3355 22.4417L24.4397 23.493C24.4066 23.5262 24.3606 23.539 24.3147 23.5262C23.1332 23.1281 20.9309 22.0104 19.4815 18.9916C19.4687 18.9584 19.4738 18.9201 19.5019 18.8869L20.6196 17.5931C21.6965 16.3452 21.5791 14.4314 20.3516 13.3341L17.8559 11.0808C17.2486 10.5321 16.4524 10.2514 15.6409 10.3025C14.8243 10.3484 14.0741 10.7133 13.5254 11.3283L12.0223 13.0279C11.3487 13.7858 10.9455 14.7657 10.8715 15.7788C10.7209 17.9478 11.0093 23.4803 16.8684 28.0787C17.366 28.5227 21.5919 32.1617 26.3331 32.1617C27.262 32.1617 28.2138 32.0239 29.1554 31.6921C29.9134 31.4242 30.5998 30.9597 31.128 30.3473L32.5979 28.6426C33.1338 28.0225 33.3941 27.2238 33.3303 26.4072C33.2639 25.5906 32.8862 24.8454 32.2585 24.3172L29.6277 22.0946ZM30.6203 26.9432L29.1505 28.6478C28.9208 28.9158 28.6222 29.1174 28.2956 29.2348C23.8196 30.8016 18.6395 26.1649 18.5885 26.1241L18.5145 26.0552C13.7859 22.3575 13.3266 18.1492 13.4771 15.9627C13.5103 15.5186 13.6864 15.095 13.9799 14.7684L15.4829 13.0688C15.5876 12.9514 15.7177 12.9259 15.7892 12.9183H15.8147C15.8861 12.9183 16.0035 12.9387 16.1081 13.0305L18.6039 15.2838C18.7799 15.4395 18.7927 15.7151 18.6421 15.8988L17.5244 17.1927C16.8201 18.0169 16.6568 19.1729 17.1263 20.1401C18.9892 24.0214 21.9085 25.4837 23.4831 26.0196C24.5421 26.3794 25.7032 26.0578 26.4305 25.2106L27.3262 24.1592C27.4818 23.9755 27.7575 23.9576 27.9412 24.1082L30.5747 26.336C30.6997 26.4406 30.7252 26.5708 30.7303 26.6371C30.7303 26.6882 30.725 26.8181 30.6203 26.9432Z" fill="black"/>
<path d="M21.9692 0.00071896C16.2913 0.00071896 10.9556 2.21573 6.93599 6.22725C-0.107007 13.2702 -1.29663 24.2715 4.00388 32.6262L0 45L11.81 39.9371C20.055 44.4309 30.3239 42.9738 37.0069 36.293C45.2977 28.0023 45.2977 14.5206 37.0069 6.22915C32.9903 2.20998 27.652 0 21.9685 0L21.9692 0.00071896ZM35.1596 34.4435C29.1627 40.4404 19.8585 41.6427 12.5548 37.3577L11.9807 37.0158L4.25891 40.3281L6.87967 32.2288L6.51986 31.7005C1.52332 24.3257 2.47515 14.3886 8.78595 8.07797C12.3075 4.5564 16.9905 2.61695 21.9691 2.61695C26.9478 2.61695 31.6305 4.5564 35.1523 8.07797C42.4252 15.3405 42.4249 27.1732 35.1596 34.4435Z" fill="black"/>
</svg>
